<svg id="Capa_2" data-name="Capa 2" xmlns="http://www.w3.org/2000/svg" viewBox="0 0 966 910.24"><defs><style>.cls-1{fill:#0b073c;}</style></defs><title>logoandresazuloscurito</title><path class="cls-1" d="M856,217,442,1005H572L693,751l371,1,173,253h129ZM736,657,862,377l167,280Z" transform="translate(-400 -94.76)"/><path class="cls-1" d="M1073,654c10.6,15.37,76.48-37.22,85.89-44.38,41.9-31.9,68.48-91.39,74.77-142.72a188.54,188.54,0,0,0,1.36-28.1c-1-37.6-13.74-74.29-32.85-106.68-25.29-42.86-62.39-85.41-105.06-111.65C1044.78,188.28,981.65,179.21,921.2,179c-67.38-.21-134.8,2-202.2,2-75.49,0-151.51-1-227-1L400,95H756c64.12,0,128.28-.69,192.37.26,68.65,1,141.1,7.59,200.78,44.37,51.15,31.53,94.26,75.69,125.37,127C1304.13,315.53,1322.9,371,1327.68,428c4.36,52-2.58,105.09-22.09,153.46-34.45,85.39-99.32,123-171.59,170.51C1134.1,751.93,1077.77,660.94,1073,654Z" transform="translate(-400 -94.76)"/><polygon class="cls-1" points="229 556.24 131 556.24 45 651.24 181 651.24 229 556.24"/><path class="cls-1" d="M501.64,193" transform="translate(-400 -94.76)"/><path class="cls-1" d="M415.64,110" transform="translate(-400 -94.76)"/><path class="cls-1" d="M280,789" transform="translate(-400 -94.76)"/><path class="cls-1" d="M277,96" transform="translate(-400 -94.76)"/></svg>