<svg id="Capa_2" data-name="Capa 2" xmlns="http://www.w3.org/2000/svg" viewBox="0 0 968.2 911.24"><defs><style>.cls-1,.cls-2{fill:#650f77;stroke:#650f77;}.cls-1,.cls-2,.cls-3{stroke-miterlimit:10;}.cls-2,.cls-3{stroke-width:8px;}.cls-3{fill:#fff;stroke:#fff;}</style></defs><title>logoandresmoradito</title><path class="cls-1" d="M852,217,438,1005H568L689,751l371,1,173,253h129ZM732,657,858,377l167,280Z" transform="translate(-394.72 -94.26)"/><path class="cls-1" d="M1069,654c10.6,15.37,76.48-37.22,85.89-44.38,41.9-31.9,68.48-91.39,74.77-142.72a188.54,188.54,0,0,0,1.36-28.1c-1-37.6-13.74-74.29-32.85-106.68-25.29-42.86-62.39-85.41-105.06-111.65C1040.78,188.28,977.65,179.21,917.2,179c-67.38-.21-134.8,2-202.2,2-75.49,0-151.51-1-227-1L396,95H752c64.12,0,128.28-.69,192.37.26,68.65,1,141.1,7.59,200.78,44.37,51.15,31.53,94.26,75.69,125.37,127C1300.13,315.53,1318.9,371,1323.68,428c4.36,52-2.58,105.09-22.09,153.46-34.45,85.39-99.32,123-171.59,170.51C1130.1,751.93,1073.77,660.94,1069,654Z" transform="translate(-394.72 -94.26)"/><polygon class="cls-1" points="230.28 556.74 132.28 556.74 46.28 651.74 182.28 651.74 230.28 556.74"/><path class="cls-1" d="M497.64,193" transform="translate(-394.72 -94.26)"/><path class="cls-1" d="M414.64,110" transform="translate(-394.72 -94.26)"/><path class="cls-2" d="M276,789" transform="translate(-394.72 -94.26)"/><path class="cls-3" d="M276,96" transform="translate(-394.72 -94.26)"/></svg>