<?xml version="1.0" encoding="utf-8"?>
<!-- Generator: Adobe Illustrator 23.0.5, SVG Export Plug-In . SVG Version: 6.00 Build 0)  -->
<svg version="1.1" id="Capa_1" xmlns="http://www.w3.org/2000/svg" xmlns:xlink="http://www.w3.org/1999/xlink" x="0px" y="0px"
	 viewBox="0 0 812 676.4" style="enable-background:new 0 0 812 676.4;" xml:space="preserve">
<style type="text/css">
	.st0{fill:#7F0068;stroke:#000000;stroke-width:40;stroke-miterlimit:10;}
	.st1{fill:#FFFFFF;stroke:#000000;stroke-width:40;stroke-miterlimit:10;}
	.st2{stroke:#000000;stroke-miterlimit:10;}
	.st3{fill:#FFFFFF;}
	.st4{font-family:'OpenSansLight-Italic';}
	.st5{font-size:28.0152px;}
	.st6{opacity:0.21;enable-background:new    ;}
	.st7{fill:#C900D9;}
	.st8{font-family:'Ubuntu-Medium';}
	.st9{font-size:55.09px;}
	.st10{letter-spacing:-1;}
</style>
<title>taza</title>
<path class="st0" d="M21.3,283c-5.5,0.1,8.1,79.9,9,85.6c17.1,99.6,44.8,183.7,136.2,238.1c78.2,46.5,174.8,57.3,263.8,45.3
	c88.3-11.9,168-69.5,208.9-148.3c21.4-41.3,30.3-85,32.4-131c0.5-10,7.6-89.6-2.4-89.6L21.3,283z"/>
<path class="st1" d="M674.3,320h113c8.2,0,3.4,84.7,2.4,91.5c-3.7,24.5-13.8,50.4-33.3,66.7c-15.6,13-35.4,18.7-55.5,18
	c-6.2-0.2-58.3,2.3-57.6-0.1C643.3,496,672.3,401,674.3,320z"/>
<path class="st2" d="M244.8,240.5c20.4-14.3,56.6-42.8,53.7-71.6c-1.8-17.5-37-32.2-48.9-44.4c-8.9-9.1-17.2-19.7-19.9-32.2
	c-4.1-18.9,5.5-38.6,19.6-51.8c20.7-19.2,51.2-30.8,77.5-40.1c-13.9,4.9-44.5,38.9-47.4,53.3c-1.1,5.5-0.4,11.2,0.3,16.8
	c1.4,10.7,2.8,21.5,6.1,31.8c4.3,13.7,11.7,26.2,21.6,36.6c6.1,6.3,13.3,12.2,16.1,20.6s0.4,17.5-4.1,24.9
	C302.2,212.5,270.2,222.7,244.8,240.5z"/>
<path class="st2" d="M385.3,240.5c20.4-14.3,56.6-42.8,53.7-71.6c-1.8-17.5-37-32.2-48.9-44.4c-9-9.1-17.2-19.7-19.9-32.2
	c-4.1-18.9,5.5-38.6,19.6-51.8C410.5,21.3,441,9.8,467.3,0.5c-13.9,4.9-44.5,38.9-47.4,53.3c-1.1,5.5-0.4,11.2,0.3,16.8
	c1.4,10.7,2.8,21.5,6.1,31.8c4.3,13.7,11.7,26.2,21.6,36.6c6.1,6.3,13.3,12.2,16.1,20.6s0.4,17.5-4.1,24.9
	C442.7,212.5,410.7,222.8,385.3,240.5z"/>
<text transform="matrix(1.1021 0 0 1 326.81 488.7305)" class="st3 st4 st5">Software Developer</text>
<path class="st6" d="M38.8,307.5c0,0,309,349,430,324c-109.3,1.7-238.8,19.3-327.3-60.1c-37.9-34.1-60.2-81-74.5-129.1
	c-7.4-24.8-12.7-50.2-17.4-75.7C47.5,354.8,45,314.2,38.8,307.5z"/>
<path class="st7" d="M530.8,328.5v-2c0-6.6,5.4-12,12-12h88c6.6,0,12,5.4,12,12v2c0,6.6-5.4,12-12,12h-88
	C536.2,340.5,530.8,335.1,530.8,328.5z"/>
<text transform="matrix(1 0 0 1 78.4198 435.24)" class="st3 st8 st9">Alexa</text>
<text transform="matrix(1 0 0 1 222.4698 435.24)" class="st3 st8 st9 st10">n</text>
<text transform="matrix(1 0 0 1 253.8098 435.24)" class="st3 st8 st9">yer Naranjo</text>
</svg>
